<?xml version="1.0" standalone="no"?>
<?xml-stylesheet href="light.css" type="text/css"?>
<!DOCTYPE svg PUBLIC "-//W3C//DTD SVG 1.1//EN" "http://www.w3.org/Graphics/SVG/1.1/DTD/svg11.dtd">
<svg xmlns="http://www.w3.org/2000/svg" version="1.1" viewBox="0 0 1000 1000"><g transform="translate(220.32590767846284,363.59706296579196) scale(0.6702356244516977)"><path class="tree-link" d="M190,-389.5C85.5,-389.5 85.5,12.5 85.5,12.5" style="stroke-opacity: 1;"></path><path class="tree-link" d="M190,-329.5C85.5,-329.5 85.5,12.5 85.5,12.5" style="stroke-opacity: 1;"></path><path class="tree-link" d="M190,-269.5C85.5,-269.5 85.5,12.5 85.5,12.5" style="stroke-opacity: 1;"></path><path class="tree-link" d="M190,-209.5C85.5,-209.5 85.5,12.5 85.5,12.5" style="stroke-opacity: 1;"></path><path class="tree-link" d="M190,-149.5C85.5,-149.5 85.5,12.5 85.5,12.5" style="stroke-opacity: 1;"></path><path class="tree-link" d="M190,18.500000000000057C85.5,18.500000000000057 85.5,12.5 85.5,12.5" style="stroke-opacity: 1;"></path><path class="tree-link" d="M190,186.5000000000001C85.5,186.5000000000001 85.5,12.5 85.5,12.5" style="stroke-opacity: 1;"></path><path class="tree-link" d="M190,354.5C85.5,354.5 85.5,12.5 85.5,12.5" style="stroke-opacity: 1;"></path><path class="tree-link" d="M190,414.5C85.5,414.5 85.5,12.5 85.5,12.5" style="stroke-opacity: 1;"></path><path class="tree-link" d="M380,-329.5C275.5,-329.5 275.5,-329.5 275.5,-329.5" style="stroke-opacity: 1;"></path><path class="tree-link" d="M380,-149.5C275.5,-149.5 275.5,-149.5 275.5,-149.5" style="stroke-opacity: 1;"></path><path class="tree-link" d="M380,-65.5C275.5,-65.5 275.5,354.5 275.5,354.5" style="stroke-opacity: 1;"></path><path class="tree-link" d="M380,-5.5C275.5,-5.5 275.5,354.5 275.5,354.5" style="stroke-opacity: 1;"></path><path class="tree-link" d="M380,54.5C275.5,54.5 275.5,354.5 275.5,354.5" style="stroke-opacity: 1;"></path><path class="tree-link" d="M380,114.5C275.5,114.5 275.5,354.5 275.5,354.5" style="stroke-opacity: 1;"></path><path class="tree-link" d="M380,174.5C275.5,174.5 275.5,354.5 275.5,354.5" style="stroke-opacity: 1;"></path><path class="tree-link" d="M380,234.5C275.5,234.5 275.5,354.5 275.5,354.5" style="stroke-opacity: 1;"></path><path class="tree-link" d="M380,294.5C275.5,294.5 275.5,354.5 275.5,354.5" style="stroke-opacity: 1;"></path><path class="tree-link" d="M380,354.5C275.5,354.5 275.5,354.5 275.5,354.5" style="stroke-opacity: 1;"></path><path class="tree-link" d="M380,414.5C275.5,414.5 275.5,354.5 275.5,354.5" style="stroke-opacity: 1;"></path><path class="tree-link" d="M380,474.5C275.5,474.5 275.5,354.5 275.5,354.5" style="stroke-opacity: 1;"></path><path class="tree-link" d="M380,534.5C275.5,534.5 275.5,354.5 275.5,354.5" style="stroke-opacity: 1;"></path><path class="tree-link" d="M380,594.5C275.5,594.5 275.5,354.5 275.5,354.5" style="stroke-opacity: 1;"></path><path class="tree-link" d="M380,654.5C275.5,654.5 275.5,354.5 275.5,354.5" style="stroke-opacity: 1;"></path><path class="tree-link" d="M380,714.5C275.5,714.5 275.5,354.5 275.5,354.5" style="stroke-opacity: 1;"></path><path class="tree-link" d="M380,774.5C275.5,774.5 275.5,354.5 275.5,354.5" style="stroke-opacity: 1;"></path><path class="tree-link" d="M570,-329.5C465.5,-329.5 465.5,-329.5 465.5,-329.5" style="stroke-opacity: 1;"></path><path class="tree-link" d="M570,-149.5C465.5,-149.5 465.5,-149.5 465.5,-149.5" style="stroke-opacity: 1;"></path><path class="tree-link" d="M570,-65.5C465.5,-65.5 465.5,-65.5 465.5,-65.5" style="stroke-opacity: 1;"></path><path class="tree-link" d="M570,54.5C465.5,54.5 465.5,54.5 465.5,54.5" style="stroke-opacity: 1;"></path><path class="tree-link" d="M570,174.5C465.5,174.5 465.5,174.5 465.5,174.5" style="stroke-opacity: 1;"></path><path class="tree-link" d="M570,294.5C465.5,294.5 465.5,294.5 465.5,294.5" style="stroke-opacity: 1;"></path><path class="tree-link" d="M570,414.5C465.5,414.5 465.5,414.5 465.5,414.5" style="stroke-opacity: 1;"></path><path class="tree-link" d="M570,534.5C465.5,534.5 465.5,534.5 465.5,534.5" style="stroke-opacity: 1;"></path><path class="tree-link" d="M570,654.5C465.5,654.5 465.5,654.5 465.5,654.5" style="stroke-opacity: 1;"></path><path class="tree-link" d="M570,774.5C465.5,774.5 465.5,774.5 465.5,774.5" style="stroke-opacity: 1;"></path><g class="tree-node tree-root" transform="translate(0, 0)" style="opacity: 1;"><rect width="171" height="25" rx="0" ry="0"></rect><text class="node-text" y="12.5" dy=".35em" x="74.546875">lista</text><text class="token-range" x="0" y="12.5" dx="0" dy="-1.8em">⨳ 0-22</text><text class="token-value" x="0" y="12.5" dy="0.25em" dx="191"></text></g><g class="tree-node tree-leaf" transform="translate(190, -402)" style="opacity: 1;"><rect width="171" height="25" rx="10" ry="10"></rect><text class="node-text" y="12.5" dy=".35em" x="68.75">LISTA</text><text class="token-range" x="0" y="12.5" dx="0" dy="-1.8em">⨳ 0</text><text class="token-value" x="0" y="12.5" dy="0.25em" dx="191">LISTA</text></g><g class="tree-node" transform="translate(190, -342)" style="opacity: 1;"><rect width="171" height="25" rx="0" ry="0"></rect><text class="node-text" y="12.5" dy=".35em" x="67.9765625">elems</text><text class="token-range" x="0" y="12.5" dx="0" dy="-1.8em">⨳ 1</text><text class="token-value" x="0" y="12.5" dy="0.25em" dx="191"></text></g><g class="tree-node tree-leaf" transform="translate(190, -282)" style="opacity: 1;"><rect width="171" height="25" rx="10" ry="10"></rect><text class="node-text" y="12.5" dy=".35em" x="70.640625">T__0</text><text class="token-range" x="0" y="12.5" dx="0" dy="-1.8em">⨳ 2</text><text class="token-value" x="0" y="12.5" dy="0.25em" dx="191">.</text></g><g class="tree-node tree-leaf" transform="translate(190, -222)" style="opacity: 1;"><rect width="171" height="25" rx="10" ry="10"></rect><text class="node-text" y="12.5" dy=".35em" x="68.75">LISTA</text><text class="token-range" x="0" y="12.5" dx="0" dy="-1.8em">⨳ 3</text><text class="token-value" x="0" y="12.5" dy="0.25em" dx="191">LISTA</text></g><g class="tree-node" transform="translate(190, -162)" style="opacity: 1;"><rect width="171" height="25" rx="0" ry="0"></rect><text class="node-text" y="12.5" dy=".35em" x="67.9765625">elems</text><text class="token-range" x="0" y="12.5" dx="0" dy="-1.8em">⨳ 4</text><text class="token-value" x="0" y="12.5" dy="0.25em" dx="191"></text></g><g class="tree-node tree-leaf" transform="translate(190, 6)" style="opacity: 1;"><rect width="171" height="25" rx="10" ry="10"></rect><text class="node-text" y="12.5" dy=".35em" x="70.640625">T__0</text><text class="token-range" x="0" y="12.5" dx="0" dy="-1.8em">⨳ 5</text><text class="token-value" x="0" y="12.5" dy="0.25em" dx="191">.</text></g><g class="tree-node tree-leaf" transform="translate(190, 174)" style="opacity: 1;"><rect width="171" height="25" rx="10" ry="10"></rect><text class="node-text" y="12.5" dy=".35em" x="68.75">LISTA</text><text class="token-range" x="0" y="12.5" dx="0" dy="-1.8em">⨳ 6</text><text class="token-value" x="0" y="12.5" dy="0.25em" dx="191">LISTA</text></g><g class="tree-node" transform="translate(190, 342)" style="opacity: 1;"><rect width="171" height="25" rx="0" ry="0"></rect><text class="node-text" y="12.5" dy=".35em" x="67.9765625">elems</text><text class="token-range" x="0" y="12.5" dx="0" dy="-1.8em">⨳ 7-21</text><text class="token-value" x="0" y="12.5" dy="0.25em" dx="191"></text></g><g class="tree-node tree-leaf" transform="translate(190, 402)" style="opacity: 1;"><rect width="171" height="25" rx="10" ry="10"></rect><text class="node-text" y="12.5" dy=".35em" x="70.640625">T__0</text><text class="token-range" x="0" y="12.5" dx="0" dy="-1.8em">⨳ 22</text><text class="token-value" x="0" y="12.5" dy="0.25em" dx="191">.</text></g><g class="tree-node" transform="translate(380, -342)" style="opacity: 1;"><rect width="171" height="25" rx="0" ry="0"></rect><text class="node-text" y="12.5" dy=".35em" x="71.15625">elem</text><text class="token-range" x="0" y="12.5" dx="0" dy="-1.8em">⨳ 1</text><text class="token-value" x="0" y="12.5" dy="0.25em" dx="191"></text></g><g class="tree-node" transform="translate(380, -162)" style="opacity: 1;"><rect width="171" height="25" rx="0" ry="0"></rect><text class="node-text" y="12.5" dy=".35em" x="71.15625">elem</text><text class="token-range" x="0" y="12.5" dx="0" dy="-1.8em">⨳ 4</text><text class="token-value" x="0" y="12.5" dy="0.25em" dx="191"></text></g><g class="tree-node" transform="translate(380, -78)" style="opacity: 1;"><rect width="171" height="25" rx="0" ry="0"></rect><text class="node-text" y="12.5" dy=".35em" x="71.15625">elem</text><text class="token-range" x="0" y="12.5" dx="0" dy="-1.8em">⨳ 7</text><text class="token-value" x="0" y="12.5" dy="0.25em" dx="191"></text></g><g class="tree-node tree-leaf" transform="translate(380, -18)" style="opacity: 1;"><rect width="171" height="25" rx="10" ry="10"></rect><text class="node-text" y="12.5" dy=".35em" x="70.9296875">T__1</text><text class="token-range" x="0" y="12.5" dx="0" dy="-1.8em">⨳ 8</text><text class="token-value" x="0" y="12.5" dy="0.25em" dx="191">,</text></g><g class="tree-node" transform="translate(380, 42)" style="opacity: 1;"><rect width="171" height="25" rx="0" ry="0"></rect><text class="node-text" y="12.5" dy=".35em" x="71.15625">elem</text><text class="token-range" x="0" y="12.5" dx="0" dy="-1.8em">⨳ 9</text><text class="token-value" x="0" y="12.5" dy="0.25em" dx="191"></text></g><g class="tree-node tree-leaf" transform="translate(380, 102)" style="opacity: 1;"><rect width="171" height="25" rx="10" ry="10"></rect><text class="node-text" y="12.5" dy=".35em" x="70.9296875">T__1</text><text class="token-range" x="0" y="12.5" dx="0" dy="-1.8em">⨳ 10</text><text class="token-value" x="0" y="12.5" dy="0.25em" dx="191">,</text></g><g class="tree-node" transform="translate(380, 162)" style="opacity: 1;"><rect width="171" height="25" rx="0" ry="0"></rect><text class="node-text" y="12.5" dy=".35em" x="71.15625">elem</text><text class="token-range" x="0" y="12.5" dx="0" dy="-1.8em">⨳ 11</text><text class="token-value" x="0" y="12.5" dy="0.25em" dx="191"></text></g><g class="tree-node tree-leaf" transform="translate(380, 222)" style="opacity: 1;"><rect width="171" height="25" rx="10" ry="10"></rect><text class="node-text" y="12.5" dy=".35em" x="70.9296875">T__1</text><text class="token-range" x="0" y="12.5" dx="0" dy="-1.8em">⨳ 12</text><text class="token-value" x="0" y="12.5" dy="0.25em" dx="191">,</text></g><g class="tree-node" transform="translate(380, 282)" style="opacity: 1;"><rect width="171" height="25" rx="0" ry="0"></rect><text class="node-text" y="12.5" dy=".35em" x="71.15625">elem</text><text class="token-range" x="0" y="12.5" dx="0" dy="-1.8em">⨳ 13</text><text class="token-value" x="0" y="12.5" dy="0.25em" dx="191"></text></g><g class="tree-node tree-leaf" transform="translate(380, 342)" style="opacity: 1;"><rect width="171" height="25" rx="10" ry="10"></rect><text class="node-text" y="12.5" dy=".35em" x="70.9296875">T__1</text><text class="token-range" x="0" y="12.5" dx="0" dy="-1.8em">⨳ 14</text><text class="token-value" x="0" y="12.5" dy="0.25em" dx="191">,</text></g><g class="tree-node" transform="translate(380, 402)" style="opacity: 1;"><rect width="171" height="25" rx="0" ry="0"></rect><text class="node-text" y="12.5" dy=".35em" x="71.15625">elem</text><text class="token-range" x="0" y="12.5" dx="0" dy="-1.8em">⨳ 15</text><text class="token-value" x="0" y="12.5" dy="0.25em" dx="191"></text></g><g class="tree-node tree-leaf" transform="translate(380, 462)" style="opacity: 1;"><rect width="171" height="25" rx="10" ry="10"></rect><text class="node-text" y="12.5" dy=".35em" x="70.9296875">T__1</text><text class="token-range" x="0" y="12.5" dx="0" dy="-1.8em">⨳ 16</text><text class="token-value" x="0" y="12.5" dy="0.25em" dx="191">,</text></g><g class="tree-node" transform="translate(380, 522)" style="opacity: 1;"><rect width="171" height="25" rx="0" ry="0"></rect><text class="node-text" y="12.5" dy=".35em" x="71.15625">elem</text><text class="token-range" x="0" y="12.5" dx="0" dy="-1.8em">⨳ 17</text><text class="token-value" x="0" y="12.5" dy="0.25em" dx="191"></text></g><g class="tree-node tree-leaf" transform="translate(380, 582)" style="opacity: 1;"><rect width="171" height="25" rx="10" ry="10"></rect><text class="node-text" y="12.5" dy=".35em" x="70.9296875">T__1</text><text class="token-range" x="0" y="12.5" dx="0" dy="-1.8em">⨳ 18</text><text class="token-value" x="0" y="12.5" dy="0.25em" dx="191">,</text></g><g class="tree-node" transform="translate(380, 642)" style="opacity: 1;"><rect width="171" height="25" rx="0" ry="0"></rect><text class="node-text" y="12.5" dy=".35em" x="71.15625">elem</text><text class="token-range" x="0" y="12.5" dx="0" dy="-1.8em">⨳ 19</text><text class="token-value" x="0" y="12.5" dy="0.25em" dx="191"></text></g><g class="tree-node tree-leaf" transform="translate(380, 702)" style="opacity: 1;"><rect width="171" height="25" rx="10" ry="10"></rect><text class="node-text" y="12.5" dy=".35em" x="70.9296875">T__1</text><text class="token-range" x="0" y="12.5" dx="0" dy="-1.8em">⨳ 20</text><text class="token-value" x="0" y="12.5" dy="0.25em" dx="191">,</text></g><g class="tree-node" transform="translate(380, 762)" style="opacity: 1;"><rect width="171" height="25" rx="0" ry="0"></rect><text class="node-text" y="12.5" dy=".35em" x="71.15625">elem</text><text class="token-range" x="0" y="12.5" dx="0" dy="-1.8em">⨳ 21</text><text class="token-value" x="0" y="12.5" dy="0.25em" dx="191"></text></g><g class="tree-node tree-leaf" transform="translate(570, -342)" style="opacity: 1;"><rect width="171" height="25" rx="10" ry="10"></rect><text class="node-text" y="12.5" dy=".35em" x="58.078125">NUMERO</text><text class="token-range" x="0" y="12.5" dx="0" dy="-1.8em">⨳ 1</text><text class="token-value" x="0" y="12.5" dy="0.25em" dx="191">1</text></g><g class="tree-node tree-leaf" transform="translate(570, -162)" style="opacity: 1;"><rect width="171" height="25" rx="10" ry="10"></rect><text class="node-text" y="12.5" dy=".35em" x="74.3203125">PAL</text><text class="token-range" x="0" y="12.5" dx="0" dy="-1.8em">⨳ 4</text><text class="token-value" x="0" y="12.5" dy="0.25em" dx="191">aaa</text></g><g class="tree-node tree-leaf" transform="translate(570, -78)" style="opacity: 1;"><rect width="171" height="25" rx="10" ry="10"></rect><text class="node-text" y="12.5" dy=".35em" x="58.078125">NUMERO</text><text class="token-range" x="0" y="12.5" dx="0" dy="-1.8em">⨳ 7</text><text class="token-value" x="0" y="12.5" dy="0.25em" dx="191">1</text></g><g class="tree-node tree-leaf" transform="translate(570, 42)" style="opacity: 1;"><rect width="171" height="25" rx="10" ry="10"></rect><text class="node-text" y="12.5" dy=".35em" x="58.078125">NUMERO</text><text class="token-range" x="0" y="12.5" dx="0" dy="-1.8em">⨳ 9</text><text class="token-value" x="0" y="12.5" dy="0.25em" dx="191">2</text></g><g class="tree-node tree-leaf" transform="translate(570, 162)" style="opacity: 1;"><rect width="171" height="25" rx="10" ry="10"></rect><text class="node-text" y="12.5" dy=".35em" x="74.3203125">PAL</text><text class="token-range" x="0" y="12.5" dx="0" dy="-1.8em">⨳ 11</text><text class="token-value" x="0" y="12.5" dy="0.25em" dx="191">agora</text></g><g class="tree-node tree-leaf" transform="translate(570, 282)" style="opacity: 1;"><rect width="171" height="25" rx="10" ry="10"></rect><text class="node-text" y="12.5" dy=".35em" x="58.078125">NUMERO</text><text class="token-range" x="0" y="12.5" dx="0" dy="-1.8em">⨳ 13</text><text class="token-value" x="0" y="12.5" dy="0.25em" dx="191">3</text></g><g class="tree-node tree-leaf" transform="translate(570, 402)" style="opacity: 1;"><rect width="171" height="25" rx="10" ry="10"></rect><text class="node-text" y="12.5" dy=".35em" x="58.078125">NUMERO</text><text class="token-range" x="0" y="12.5" dx="0" dy="-1.8em">⨳ 15</text><text class="token-value" x="0" y="12.5" dy="0.25em" dx="191">4</text></g><g class="tree-node tree-leaf" transform="translate(570, 522)" style="opacity: 1;"><rect width="171" height="25" rx="10" ry="10"></rect><text class="node-text" y="12.5" dy=".35em" x="74.3203125">PAL</text><text class="token-range" x="0" y="12.5" dx="0" dy="-1.8em">⨳ 17</text><text class="token-value" x="0" y="12.5" dy="0.25em" dx="191">fim</text></g><g class="tree-node tree-leaf" transform="translate(570, 642)" style="opacity: 1;"><rect width="171" height="25" rx="10" ry="10"></rect><text class="node-text" y="12.5" dy=".35em" x="58.078125">NUMERO</text><text class="token-range" x="0" y="12.5" dx="0" dy="-1.8em">⨳ 19</text><text class="token-value" x="0" y="12.5" dy="0.25em" dx="191">7</text></g><g class="tree-node tree-leaf" transform="translate(570, 762)" style="opacity: 1;"><rect width="171" height="25" rx="10" ry="10"></rect><text class="node-text" y="12.5" dy=".35em" x="58.078125">NUMERO</text><text class="token-range" x="0" y="12.5" dx="0" dy="-1.8em">⨳ 21</text><text class="token-value" x="0" y="12.5" dy="0.25em" dx="191">8</text></g></g></svg>